<?xml version="1.0" encoding="UTF-8"?>
<svg xmlns="http://www.w3.org/2000/svg" xmlns:xlink="http://www.w3.org/1999/xlink" width="252pt" height="252pt" viewBox="0 0 252 252" version="1.1">
<g id="surface1">
<path style=" stroke:none;fill-rule:evenodd;fill:rgb(100%,100%,100%);fill-opacity:1;" d="M 250.261719 126 C 250.261719 194.628906 194.628906 250.261719 126 250.261719 C 57.371094 250.261719 1.738281 194.628906 1.738281 126 C 1.738281 57.371094 57.371094 1.738281 126 1.738281 C 194.628906 1.738281 250.261719 57.371094 250.261719 126 Z M 250.261719 126 "/>
<path style=" stroke:none;fill-rule:nonzero;fill:rgb(3.529412%,31.372549%,62.745098%);fill-opacity:1;" d="M 4.414062 126.003906 C 4.414062 58.957031 58.949219 4.414062 126 4.414062 C 193.046875 4.414062 247.597656 58.957031 247.597656 126.003906 C 247.597656 193.042969 193.046875 247.589844 126 247.589844 C 58.949219 247.589844 4.414062 193.042969 4.414062 126.003906 M 0 126.003906 C 0 195.484375 56.53125 252 126 252 C 195.484375 252 252 195.484375 252 126.003906 C 252 56.519531 195.484375 0 126 0 C 56.53125 0 0 56.519531 0 126.003906 "/>
<path style=" stroke:none;fill-rule:nonzero;fill:rgb(3.529412%,31.372549%,62.745098%);fill-opacity:1;" d="M 141.292969 76.691406 L 139.21875 67.644531 L 144.476562 66.75 L 149.78125 69.117188 C 149.78125 69.117188 153.871094 67.90625 153.242188 78.421875 C 152.695312 88.964844 157.332031 86.046875 151.53125 87.257812 C 145.675781 88.4375 148.308594 84.613281 143.601562 83.425781 C 138.929688 82.265625 141.292969 76.691406 141.292969 76.691406 "/>
<path style=" stroke:none;fill-rule:nonzero;fill:rgb(3.529412%,31.372549%,62.745098%);fill-opacity:1;" d="M 85.238281 223.039062 C 77.707031 213.527344 71.515625 200.277344 67.078125 184.640625 C 39.957031 176.34375 20.40625 162.519531 14.636719 146.261719 C 21.523438 184.964844 44.820312 215.046875 80.269531 229.511719 C 79.21875 228.953125 81.347656 230.152344 80.269531 229.511719 C 80.269531 229.511719 82.257812 227.808594 85.238281 223.039062 "/>
<path style=" stroke:none;fill-rule:nonzero;fill:rgb(3.529412%,31.372549%,62.745098%);fill-opacity:1;" d="M 78.492188 65.089844 C 92.988281 61.707031 109.121094 59.785156 126.109375 59.785156 L 126.09375 13.105469 C 106.125 13.164062 88.589844 33.808594 78.492188 65.089844 "/>
<path style=" stroke:none;fill-rule:nonzero;fill:rgb(3.529412%,31.372549%,62.745098%);fill-opacity:1;" d="M 13.320312 131.378906 C 16.425781 149.152344 36.007812 164.582031 64.402344 173.847656 C 61.582031 160.847656 59.933594 146.484375 59.625 131.378906 Z M 13.320312 131.378906 "/>
<path style=" stroke:none;fill-rule:nonzero;fill:rgb(3.529412%,31.372549%,62.745098%);fill-opacity:1;" d="M 13.386719 120.988281 L 59.625 120.988281 C 59.949219 105.957031 61.613281 91.808594 64.402344 78.871094 C 36.25 88.070312 16.710938 103.328125 13.386719 120.988281 "/>
<path style=" stroke:none;fill-rule:nonzero;fill:rgb(3.529412%,31.372549%,62.745098%);fill-opacity:1;" d="M 67.078125 68.121094 C 74.570312 41.660156 87.101562 22.230469 102.425781 15.65625 C 57.648438 25.183594 22.691406 61.140625 14.636719 106.480469 C 20.40625 90.265625 39.957031 76.417969 67.078125 68.121094 "/>
<path style=" stroke:none;fill-rule:nonzero;fill:rgb(3.529412%,31.372549%,62.745098%);fill-opacity:1;" d="M 126.109375 69.761719 C 107.914062 69.761719 90.703125 71.917969 75.464844 75.742188 C 72.035156 89.433594 69.949219 104.773438 69.570312 120.988281 L 91.421875 120.988281 L 126.09375 79.449219 "/>
<path style=" stroke:none;fill-rule:nonzero;fill:rgb(3.529412%,31.372549%,62.745098%);fill-opacity:1;" d="M 90.199219 213.964844 C 92.878906 208.359375 95.816406 200.933594 98.742188 191.234375 C 91.710938 190.386719 84.949219 189.179688 78.492188 187.695312 C 81.722656 197.605469 85.660156 206.492188 90.199219 213.964844 "/>
<path style=" stroke:none;fill-rule:nonzero;fill:rgb(3.529412%,31.372549%,62.745098%);fill-opacity:1;" d="M 75.464844 177.023438 C 83.589844 179.089844 92.300781 180.609375 101.40625 181.621094 C 104.824219 168.503906 108.070312 152.007812 110.605469 131.378906 L 69.570312 131.378906 C 69.90625 147.707031 71.992188 163.167969 75.464844 177.023438 "/>
<path style=" stroke:none;fill-rule:nonzero;fill:rgb(3.529412%,31.372549%,62.745098%);fill-opacity:1;" d="M 126.363281 79.449219 L 126.363281 239.589844 C 126.363281 239.589844 152.273438 241.578125 172.191406 229.511719 C 172.191406 229.511719 150.941406 211.167969 141.292969 126.761719 L 165.902344 126.761719 Z M 126.363281 79.449219 "/>
<path style=" stroke:none;fill-rule:nonzero;fill:rgb(3.529412%,31.372549%,62.745098%);fill-opacity:1;" d="M 149.429688 15.546875 C 200.777344 26.308594 239.335938 71.832031 239.335938 126.378906 C 239.335938 162.542969 222.390625 194.75 196.03125 215.527344 C 195.230469 215.816406 194.351562 216.578125 193.441406 217.394531 C 191.578125 218.828125 189.671875 220.144531 187.738281 221.414062 L 187.738281 221.261719 C 187.5 218.621094 192.835938 205.367188 194.574219 202.730469 C 196.40625 200.128906 199.367188 197.976562 199.515625 194.425781 C 199.585938 190.9375 203.539062 185.511719 205.4375 183.023438 C 207.347656 180.609375 204.867188 176.964844 205.046875 174.609375 C 205.652344 165.292969 197.148438 170.605469 190.132812 163.851562 C 185.777344 151.851562 180.484375 160.933594 178.382812 149.199219 C 167.289062 136.886719 172.066406 140.648438 171.378906 132.824219 C 170.664062 125.050781 177.554688 132.824219 177.273438 123.738281 C 176.925781 114.679688 183.941406 111.164062 196.265625 105.925781 C 207.066406 107.382812 208.550781 101.789062 213.1875 98.328125 C 215.007812 87.796875 222.851562 95.703125 224.65625 86.34375 C 223.203125 83.855469 220.203125 80.777344 218.132812 79.503906 C 216.046875 78.226562 214.515625 74.035156 212.164062 74.121094 C 209.726562 74.28125 214.65625 82.125 212.289062 83.855469 C 211.171875 84.664062 208.480469 81.390625 202.796875 82.640625 C 200.75 83.089844 196.953125 87.257812 195.957031 88.964844 C 195.121094 96.605469 199.011719 100.5625 193.523438 104.285156 C 184.78125 100.082031 185.832031 101.769531 178.199219 100.5625 C 174.222656 97.660156 174.417969 101.261719 173.449219 91.199219 C 170.609375 86.683594 171.378906 84.785156 170.414062 82.523438 C 167.613281 75.839844 169.121094 69.035156 163.464844 67.28125 C 161.222656 66.582031 159.726562 61.179688 159.726562 61.179688 L 157.929688 54.796875 C 152.695312 51.042969 165.261719 48.691406 159.152344 38.777344 C 158.574219 42.601562 154.09375 34.03125 152.273438 35.390625 C 148.96875 37.917969 155.3125 44.53125 155.246094 44.585938 C 154.09375 46.722656 154.527344 55.5625 153.117188 56.433594 C 151.714844 57.292969 150.3125 57.679688 149.023438 57.96875 C 147.664062 58.351562 146.585938 58.519531 145.675781 59.199219 C 140.121094 57.140625 142.175781 58.804688 142.175781 49.585938 C 138.382812 42.601562 139.824219 42.601562 138.382812 38.132812 C 136.925781 33.765625 136.925781 36.679688 135.734375 30.839844 C 134.808594 26.183594 141.152344 19.523438 149.429688 15.546875 "/>
</g>
</svg>
